<?xml version="1.0" encoding="UTF-8"?>
<!DOCTYPE svg PUBLIC "-//W3C//DTD SVG 1.1//EN" "http://www.w3.org/Graphics/SVG/1.1/DTD/svg11.dtd">
<svg xmlns="http://www.w3.org/2000/svg" version="1.1" width="137px" height="56px" style="shape-rendering:geometricPrecision; text-rendering:geometricPrecision; image-rendering:optimizeQuality; fill-rule:evenodd; clip-rule:evenodd" xmlns:xlink="http://www.w3.org/1999/xlink">
<g><path style="opacity:0.982" fill="#fdfdfe" d="M 19.5,-0.5 C 51.5,-0.5 83.5,-0.5 115.5,-0.5C 127.226,3.89027 134.226,12.2236 136.5,24.5C 136.5,26.1667 136.5,27.8333 136.5,29.5C 134.686,42.3181 127.686,50.9848 115.5,55.5C 83.8333,55.5 52.1667,55.5 20.5,55.5C 10.2593,52.2598 3.25933,45.5932 -0.5,35.5C -0.5,30.5 -0.5,25.5 -0.5,20.5C 2.74016,10.2593 9.40683,3.25933 19.5,-0.5 Z"/></g>
<g><path style="opacity:1" fill="#4164fe" d="M 23.5,7.5 C 40.4563,7.28896 48.2896,15.6223 47,32.5C 42.8345,43.9841 34.6679,48.8174 22.5,47C 11.0384,42.8505 6.20508,34.6838 8,22.5C 10.4548,14.5428 15.6215,9.54277 23.5,7.5 Z"/></g>
<g><path style="opacity:1" fill="#151515" d="M 70.5,18.5 C 78.9553,18.696 82.122,23.0293 80,31.5C 76.4214,37.7531 72.4214,38.0865 68,32.5C 66.8058,27.3686 67.6391,22.7019 70.5,18.5 Z"/></g>
<g><path style="opacity:1" fill="#121212" d="M 102.5,18.5 C 110.616,19.1466 113.449,23.4799 111,31.5C 108.804,36.5402 105.304,37.7068 100.5,35C 98.6145,31.0328 98.1145,26.8661 99,22.5C 99.6897,20.6498 100.856,19.3164 102.5,18.5 Z"/></g>
<g><path style="opacity:1" fill="#eff2ff" d="M 21.5,18.5 C 25.8394,17.8461 29.6727,18.8461 33,21.5C 34.1603,28.1747 31.327,31.1747 24.5,30.5C 24.5,32.5 24.5,34.5 24.5,36.5C 23.5,36.5 22.5,36.5 21.5,36.5C 21.5,30.5 21.5,24.5 21.5,18.5 Z"/></g>
<g><path style="opacity:1" fill="#121212" d="M 62.5,18.5 C 62.5,24.1667 62.5,29.8333 62.5,35.5C 61.5,35.5 60.5,35.5 59.5,35.5C 59.8256,31.1161 59.4922,26.7828 58.5,22.5C 57.5224,22.9767 56.6891,23.6433 56,24.5C 55.9498,20.3988 58.1165,18.3988 62.5,18.5 Z"/></g>
<g><path style="opacity:1" fill="#9a9a9a" d="M 62.5,18.5 C 63.4896,24.31 63.8229,30.31 63.5,36.5C 61.901,36.7678 60.5676,36.4345 59.5,35.5C 60.5,35.5 61.5,35.5 62.5,35.5C 62.5,29.8333 62.5,24.1667 62.5,18.5 Z"/></g>
<g><path style="opacity:1" fill="#3f64fe" d="M 24.5,21.5 C 29.6673,20.4919 31.334,22.3252 29.5,27C 27.8659,27.4935 26.1992,27.6602 24.5,27.5C 24.5,25.5 24.5,23.5 24.5,21.5 Z"/></g>
<g><path style="opacity:1" fill="#f0f0f0" d="M 71.5,21.5 C 77.1558,21.8674 78.9891,24.8674 77,30.5C 75.7758,33.473 73.7758,34.1397 71,32.5C 70.2446,28.7446 70.4113,25.0779 71.5,21.5 Z"/></g>
<g><path style="opacity:1" fill="#f0f0f0" d="M 102.5,21.5 C 104.766,21.1412 106.599,21.8078 108,23.5C 108.667,26.1667 108.667,28.8333 108,31.5C 106,34.1667 104,34.1667 102,31.5C 101.341,28.1119 101.508,24.7786 102.5,21.5 Z"/></g>
<g><path style="opacity:1" fill="#191919" d="M 87.5,27.5 C 86.5,27.5 85.5,27.5 84.5,27.5C 84.5,26.1667 84.5,24.8333 84.5,23.5C 84.5,21.8333 84.5,20.1667 84.5,18.5C 87.8333,18.5 91.1667,18.5 94.5,18.5C 94.5,19.5 94.5,20.5 94.5,21.5C 92.1667,21.5 89.8333,21.5 87.5,21.5C 87.5,22.5 87.5,23.5 87.5,24.5C 95.3017,24.7874 97.3017,28.2874 93.5,35C 89.2815,37.5244 85.9481,36.6911 83.5,32.5C 84,32.1667 84.5,31.8333 85,31.5C 86.8951,33.1821 89.0617,33.6821 91.5,33C 93.4919,28.848 92.1585,27.0146 87.5,27.5 Z"/></g>
<g><path style="opacity:1" fill="#838383" d="M 84.5,23.5 C 84.5,24.8333 84.5,26.1667 84.5,27.5C 85.5,27.5 86.5,27.5 87.5,27.5C 86.4324,28.4345 85.099,28.7678 83.5,28.5C 83.2155,26.5853 83.5489,24.9187 84.5,23.5 Z"/></g>
</svg>
