<?xml version="1.0" encoding="UTF-8"?>
<!DOCTYPE svg PUBLIC "-//W3C//DTD SVG 1.1//EN" "http://www.w3.org/Graphics/SVG/1.1/DTD/svg11.dtd">
<svg xmlns="http://www.w3.org/2000/svg" version="1.1" width="138px" height="138px" style="shape-rendering:geometricPrecision; text-rendering:geometricPrecision; image-rendering:optimizeQuality; fill-rule:evenodd; clip-rule:evenodd" xmlns:xlink="http://www.w3.org/1999/xlink">
<g><path style="opacity:0.988" fill="#eef1fc" d="M 56.5,-0.5 C 64.5,-0.5 72.5,-0.5 80.5,-0.5C 111.197,6.86391 130.197,25.8639 137.5,56.5C 137.5,64.5 137.5,72.5 137.5,80.5C 130.136,111.197 111.136,130.197 80.5,137.5C 72.5,137.5 64.5,137.5 56.5,137.5C 25.8028,130.136 6.80275,111.136 -0.5,80.5C -0.5,72.5 -0.5,64.5 -0.5,56.5C 6.86391,25.8028 25.8639,6.80275 56.5,-0.5 Z"/></g>
<g><path style="opacity:1" fill="#0f0f10" d="M 60.5,23.5 C 87.8228,22.0006 105.323,34.3339 113,60.5C 115.27,86.4706 104.103,103.637 79.5,112C 60.8976,116.021 45.3976,110.855 33,96.5C 18.313,73.217 20.813,52.0503 40.5,33C 46.8737,28.9775 53.5404,25.8108 60.5,23.5 Z"/></g>
<g><path style="opacity:1" fill="#f4f4f7" d="M 60.5,27.5 C 85.5526,25.756 101.719,36.756 109,60.5C 111.282,87.1936 99.4487,103.36 73.5,109C 55.9988,110.665 42.4988,104.165 33,89.5C 22.2865,66.517 27.1199,47.6837 47.5,33C 51.7415,30.6512 56.0748,28.8179 60.5,27.5 Z"/></g>
<g><path style="opacity:1" fill="#3861fc" d="M 61.5,33.5 C 89.0362,32.8723 102.87,46.2057 103,73.5C 100.566,87.9338 92.3991,97.4338 78.5,102C 57.4983,106.084 42.9983,98.2507 35,78.5C 30.9996,55.8223 39.833,40.8223 61.5,33.5 Z"/></g>
<g><path style="opacity:1" fill="#fbfbfe" d="M 57.5,53.5 C 62.8437,53.334 68.1771,53.5006 73.5,54C 79.0248,56.9188 80.8581,61.4188 79,67.5C 78.2155,69.286 77.0488,70.786 75.5,72C 71.2695,73.2899 66.9362,73.7899 62.5,73.5C 62.5,76.8333 62.5,80.1667 62.5,83.5C 60.8333,83.5 59.1667,83.5 57.5,83.5C 57.5,73.5 57.5,63.5 57.5,53.5 Z"/></g>
<g><path style="opacity:1" fill="#90a6fd" d="M 70.5,58.5 C 68.1667,58.5 65.8333,58.5 63.5,58.5C 63.5,61.8333 63.5,65.1667 63.5,68.5C 65.5,68.5 67.5,68.5 69.5,68.5C 67.3926,69.4682 65.0593,69.8016 62.5,69.5C 62.5,65.5 62.5,61.5 62.5,57.5C 65.3854,57.1936 68.0521,57.5269 70.5,58.5 Z"/></g>
<g><path style="opacity:1" fill="#3761fc" d="M 70.5,58.5 C 73.2603,60.396 74.0937,63.0626 73,66.5C 72.1841,67.8228 71.0174,68.4894 69.5,68.5C 67.5,68.5 65.5,68.5 63.5,68.5C 63.5,65.1667 63.5,61.8333 63.5,58.5C 65.8333,58.5 68.1667,58.5 70.5,58.5 Z"/></g>
</svg>
