<svg width="24" height="24" viewBox="0 0 24 24" fill="none" xmlns="http://www.w3.org/2000/svg">
<path fill-rule="evenodd" clip-rule="evenodd" d="M21.7048 4.59145C22.0164 3.18579 20.7092 1.91739 19.2939 2.32699L3.63738 6.88272L3.48628 6.93295C2.0167 7.48602 1.79121 9.53277 3.16768 10.3801L9.64322 14.366L13.539 20.8201L13.6265 20.9533C14.5398 22.2328 16.562 21.9229 17.0231 20.3719L21.6682 4.73242L21.7048 4.59145ZM19.7849 3.75314C20.0737 3.72213 20.3204 4.00303 20.2305 4.30464L15.5852 19.9447L15.5547 20.0214C15.4096 20.3068 14.9988 20.3359 14.8232 20.045L11.1352 13.936L16.3877 8.64966L16.46 8.5653C16.6769 8.27096 16.6513 7.85438 16.3842 7.589L16.2998 7.51667C16.0055 7.29979 15.5889 7.32538 15.3235 7.59254L10.0782 12.872L3.95398 9.10275L3.88786 9.05309C3.65003 8.83643 3.73008 8.41772 4.05598 8.32313L19.7119 3.76756L19.7849 3.75314Z" fill="white"/>
</svg>
